inDegrees=no
num_controls=7
num_derivatives=13
num_iterations=91
num_multipliers=7
num_parameters=0
num_slacks=7
num_states=26
objective=4.819095
objective_accelerations=0.480191
objective_balance=0.014197
objective_effort=0.138798
objective_height=4.110457
objective_ligament=0.075451
solver_duration=1001.099468
status=Solve_Succeeded
success=true
DataType=double
version=3
OpenSimVersion=4.4-2022-07-23-0e9fedc
endheader
time	/jointset/ground_pelvis/pelvis_tilt/value	/jointset/ground_pelvis/pelvis_tx/value	/jointset/ground_pelvis/pelvis_ty/value	/jointset/hip_l/hip_flexion_l/value	/jointset/hip_l/hip_adduction_l/value	/jointset/hip_l/hip_rotation_l/value	/jointset/back/lumbar_extension/value	/jointset/patellofemoral_l/patellar_flexion_l/value	/jointset/knee_l/knee_flexion_l/value	/jointset/knee_l/knee_adduction_l/value	/jointset/knee_l/knee_rotation_l/value	/jointset/ankle_l/ankle_angle_l/value	/jointset/subtalar_l/subtalar_angle_l/value	/jointset/ground_pelvis/pelvis_tilt/speed	/jointset/ground_pelvis/pelvis_tx/speed	/jointset/ground_pelvis/pelvis_ty/speed	/jointset/hip_l/hip_flexion_l/speed	/jointset/hip_l/hip_adduction_l/speed	/jointset/hip_l/hip_rotation_l/speed	/jointset/back/lumbar_extension/speed	/jointset/patellofemoral_l/patellar_flexion_l/speed	/jointset/knee_l/knee_flexion_l/speed	/jointset/knee_l/knee_adduction_l/speed	/jointset/knee_l/knee_rotation_l/speed	/jointset/ankle_l/ankle_angle_l/speed	/jointset/subtalar_l/subtalar_angle_l/speed	/forceset/tau_hip_flexion_l	/forceset/tau_hip_adduction_l	/forceset/tau_hip_rotation_l	/forceset/tau_knee_flexion_l	/forceset/tau_ankle_angle_l	/forceset/tau_subtalar_angle_l	/forceset/tau_lumbar_extension	lambda_cid13_p0	lambda_cid13_p1	lambda_cid13_p2	lambda_cid13_p3	lambda_cid13_p4	lambda_cid13_p5	lambda_cid14_p0	/jointset/ground_pelvis/pelvis_tilt/accel	/jointset/ground_pelvis/pelvis_tx/accel	/jointset/ground_pelvis/pelvis_ty/accel	/jointset/hip_l/hip_flexion_l/accel	/jointset/hip_l/hip_adduction_l/accel	/jointset/hip_l/hip_rotation_l/accel	/jointset/back/lumbar_extension/accel	/jointset/patellofemoral_l/patellar_flexion_l/accel	/jointset/knee_l/knee_flexion_l/accel	/jointset/knee_l/knee_adduction_l/accel	/jointset/knee_l/knee_rotation_l/accel	/jointset/ankle_l/ankle_angle_l/accel	/jointset/subtalar_l/subtalar_angle_l/accel	gamma_cid13_p0	gamma_cid13_p1	gamma_cid13_p2	gamma_cid13_p3	gamma_cid13_p4	gamma_cid13_p5	gamma_cid14_p0
0.5	-0.1356925062212048	0.06172869179870184	0.8090899262111824	0.773495487847312	-0.3711368097631384	-0.03459271598314893	-0.3905459568130311	0.8297556088786137	0.829755608878639	-0.06490384748542959	-0.1742386084636663	0.3090103392078084	0.1514726856109195	-0.5404142207384859	-0.1169609153130881	-0.3682173208863009	1.807778443330606	0.009622154789244454	0.4862417551713524	-0.3240830966200399	1.655850840635031	1.655850840635055	0.2219159084999947	0.002888198898870448	0.5284181242972956	0.2253229793844818	-0.07211849359840836	0.04091147400343469	0.005671710009144439	-0.1961212443142189	-0.00799153726920908	0.001041699027746703	0.09731217713335888	-28.37868954872511	5.830680157658129	-2.711697891977417	2.371203465682188	-446.6474014364446	-55.93579520148824	-9.986788270989633	0.01131548093711802	0.2026686996277181	-0.3181476517929356	-0.8071551251712326	0.05790930875373566	-0.5033912501602655	1.158416860418037	-1.357666411492196	-1.357666411492183	-0.4060500071995394	0.04435654697731076	-0.7184284792989829	0.03212794523396918	-1.29275312979567e-07	-2.360087614712457e-06	1.220932328590113e-06	-2.409507029206036e-07	-3.124209066051645e-07	-1.830009850938426e-06	-3.226993400346895e-07
0.51	-0.1410948116299276	0.06056945602273391	0.8053927014845899	0.7915294322365685	-0.3710389544116559	-0.02975666745025443	-0.3937291261233717	0.8462434626532214	0.8462434626533986	-0.06270699795727518	-0.1742098809689511	0.3142575116809911	0.1537253242633524	-0.539975410132377	-0.1148662429359895	-0.3711466197112928	1.798762633570325	0.009941325062818187	0.4809504822532638	-0.3125179972727172	1.64149148564199	1.641491485641996	0.2174246130116552	0.002862445165571237	0.520953106154081	0.2251606643224038	-0.07558355997659087	0.04226986611845331	0.005117051332195512	-0.1977048532424723	-0.009679176198683534	0.001946402313607521	0.100041282480475	-28.9834090436487	5.622779915394451	-2.768938919179705	2.438939678724441	-448.802764880474	-56.07136785734543	-9.295303256905276	0.07086171964409792	0.2158211761834624	-0.2682333617744262	-0.9859858338452573	0.01776652418191713	-0.5449199375208039	1.160471701500086	-1.50927067395155	-1.509270673954159	-0.4753528174742615	-0.02510202067780599	-0.770121047788873	-0.04682283979702383	-1.174525777457364e-07	-2.395853196617298e-06	1.077402831783607e-06	-2.560300776559233e-07	-2.788452857145463e-07	-1.806021968911556e-06	-3.073300002788278e-07
0.52	-0.1464905893589238	0.0594317579044157	0.801668601296969	0.8094657801418546	-0.3709381382299172	-0.02497411657150128	-0.3967956613942777	0.8625808827519085	0.8625808827518785	-0.060555998085059	-0.1741812231481387	0.3194281174595262	0.1559750574435913	-0.5391086847579006	-0.1126533837831464	-0.3735924130919133	1.788259146514615	0.01021432083720098	0.4755422243397467	-0.3007562887404282	1.625764105419319	1.625764105419307	0.2127459776104742	0.002874263944434101	0.5131047853725798	0.224741884945568	-0.07904862635229527	0.04362825823377885	0.004562392648789063	-0.1992884621701152	-0.0113668151280903	0.002851105600017374	0.1027703878297642	-29.58753579100128	5.409204642571864	-2.818911346277485	2.494463485043142	-450.9642202561199	-56.25969796142586	-8.608713820298901	0.09689843461524009	0.2263060547727568	-0.2214465629189228	-1.104690584256131	0.04867440891507806	-0.5267882492469135	1.197738697412923	-1.631271457416817	-1.631271457416799	-0.4435179897670847	0.05187104940772329	-0.7950890069610081	-0.0191649177196119	-9.064439234753804e-08	-2.719562089789378e-06	6.864280450917503e-07	-3.201239494366269e-07	-2.050772903459011e-07	-1.851803640847732e-06	-2.851205169117236e-07
0.53	-0.1518757206993497	0.05831675411332202	0.7979225290666683	0.82728980663423	-0.3708345494657195	-0.02024864462294573	-0.3997436625372455	0.8787541926321601	0.8787541926320092	-0.0584505233035389	-0.1741536217774276	0.3245183946498096	0.1582197095024089	-0.5378610196343577	-0.1103291231050357	-0.3755348929972618	1.776306761464725	0.01050765508792055	0.4694692270914311	-0.2888172931422731	1.608662418028544	1.608662418028535	0.2083883741471393	0.002630641193128903	0.5048890427382687	0.2241598368418814	-0.08236051793361399	0.0449264338675042	0.00396767521279361	-0.2012157116373988	-0.01267854328714152	0.00360772171811897	0.1053849720368475	-30.09366038605233	5.265997037499371	-2.906617016803824	2.494911412887223	-453.2918053293558	-56.3653576042552	-7.930945331282912	0.1471655620293956	0.2381530058407712	-0.1676109755174691	-1.276438519202701	0.02045683800220422	-0.6602601308043656	1.195977000592495	-1.784880574717785	-1.784880574716901	-0.4263644250482229	-0.06478604757816107	-0.844179441008994	-0.081629665694411	-1.131072424788273e-07	-2.492955741965591e-06	1.044695846515842e-06	-2.72173147673436e-07	-2.62041999593732e-07	-1.820872331312916e-06	-3.112170570899902e-07
0.54	-0.1572466823865531	0.05722552631530452	0.7941596395830853	0.8449871240654943	-0.3707278685780542	-0.01558644358043169	-0.4025714743222669	0.8947494329994726	0.8947494329992507	-0.05638752113784014	-0.1741289180556991	0.3295246419038441	0.1604577600983885	-0.53627475407809	-0.1078981851679085	-0.3769558637482324	1.76291733426109	0.01083274553255358	0.462888043115973	-0.2767184171605671	1.590150202845404	1.5901502028454	0.2042514546666321	0.002294734034669325	0.4962987981302087	0.223421592378143	-0.08567240951197178	0.04622460950195007	0.003372957772731043	-0.2031429611040131	-0.01399027144603623	0.004364337837358795	0.1079995562464729	-30.59836975638013	5.114600337310438	-2.983946345028716	2.484364490891269	-455.613564538646	-56.51389546781326	-7.282911483197001	0.1646185211645899	0.2476415065724509	-0.1171447320436058	-1.392099015004309	0.05502564769737977	-0.6284255946762511	1.229714774124659	-1.913377015888328	-1.913377015888336	-0.3993811932008339	0.03341416797503372	-0.8699894017153235	-0.05040418973191599	-1.900827276640184e-07	-1.6574899785719e-06	2.231912894366098e-06	-1.002580262446581e-07	-4.636471479917084e-07	-1.705067084831467e-06	-3.907585594886677e-07
0.55	-0.1625998567925752	0.05615904296278874	0.7903851143837957	0.862543389690146	-0.3706184908379742	-0.01098763294013804	-0.4052777521879571	0.9105527246517291	0.9105527246514502	-0.05436946574023817	-0.1741057601517112	0.3344429731313691	0.1626864474155248	-0.5342863157715452	-0.1053914530677896	-0.3778650389991735	1.748114263370685	0.01104734894908441	0.456774375340343	-0.2645295802061916	1.570314499274744	1.570314499274738	0.1994166585876573	0.002293032147770877	0.4873141372465963	0.2222873964643751	-0.08920263756848008	0.04757198215672846	0.002794754517621787	-0.2045375056992867	-0.01605624574836642	0.005013071383943694	0.1106970540819542	-31.35348225534626	5.034324035422998	-3.050253502806392	2.739647580423084	-457.8316722712875	-56.48389524666005	-6.669386392841944	0.2270074527358119	0.2532425952131633	-0.06529807846491888	-1.557670303527279	0.004990927284266801	-0.6182108956313501	1.214604524448786	-2.047624441646078	-2.047624441645996	-0.5170765131343571	-0.02304337407309003	-0.9207556094192608	-0.1493519397253698	-2.265912642527178e-07	-1.084289462429389e-06	2.848789797234218e-06	6.998101444386619e-09	-5.633376053203497e-07	-1.54328673479608e-06	-4.224198194983202e-07
